<svg xmlns="http://www.w3.org/2000/svg" viewBox="0 0 452.8 452"><style>#c,#q{fill:#0f172a}#v{fill:#fff}@media (prefers-color-scheme:dark){#q{fill:#6b7280}#c,#v{fill:#fff}}</style><path id="q" d="M240 362H60c-33.1 0-60-26.9-60-60V152c0-33.1 26.9-60 60-60h180c33.1 0 60 26.9 60 60v150c0 33.1-26.9 60-60 60z"/><path id="v" d="m107 155 30.1 86.1c5.1 13.9 9.2 26.6 12.3 39.3h.9c3.5-12.7 7.9-25.3 13-39.3l29.8-86.1h29.1L162 308.3h-26.6L77.2 155H107z"/><path id="c" d="M452.2 302.4c-7.3 3.8-23.4 8.8-43.9 8.8-46.1 0-76.2-31.3-76.2-78.1 0-47.1 32.2-81.2 82.2-81.2 16.4 0 31 4.1 38.6 7.9l-6.3 21.5c-6.6-3.8-17.1-7.3-32.2-7.3-35.1 0-54 25.9-54 57.8 0 35.4 22.8 57.2 53.1 57.2 15.8 0 26.2-4.1 34.1-7.6l4.6 21z"/></svg>